<svg xmlns="http://www.w3.org/2000/svg" viewBox="0 0 32 32" width="32" height="32">
  <rect width="32" height="32" rx="7" fill="#05070A"/>
  <g stroke="#2F4150" stroke-width="1" fill="none">
    <path d="M25 16 L20.5 8.2 L11.5 8.2 L7 16 L11.5 23.8 L20.5 23.8 Z"/>
    <line x1="16" y1="16" x2="25" y2="16"/>
    <line x1="16" y1="16" x2="20.5" y2="8.2"/>
    <line x1="16" y1="16" x2="11.5" y2="8.2"/>
    <line x1="16" y1="16" x2="7" y2="16"/>
    <line x1="16" y1="16" x2="11.5" y2="23.8"/>
    <line x1="16" y1="16" x2="20.5" y2="23.8"/>
  </g>
  <circle cx="25" cy="16" r="1.5" fill="#22D3EE"/>
  <circle cx="20.5" cy="8.2" r="1.5" fill="#4D7CFE"/>
  <circle cx="11.5" cy="8.2" r="1.5" fill="#22D3EE"/>
  <circle cx="7" cy="16" r="1.5" fill="#4D7CFE"/>
  <circle cx="11.5" cy="23.8" r="1.5" fill="#22D3EE"/>
  <circle cx="20.5" cy="23.8" r="1.5" fill="#4D7CFE"/>
  <circle cx="16" cy="16" r="3" fill="#36F1A5"/>
</svg>
